<svg xmlns="http://www.w3.org/2000/svg" width="396" height="133">
  <path fill="#011f5b" d="M148.434 51.737c4.397 1.524 6.935 1.694 12.01 1.694 14.377 0 23.51-7.791 23.51-21.001 0-10.332-5.75-24.22-23.51-24.22h-12.01zm0 31.502c0 12.025 2.875 15.412 10.995 15.412v2.88h-34.845v-2.88c6.766 0 10.994-2.203 10.994-15.074v-60.8c0-11.857-2.875-15.413-10.994-15.413v-2.88h35.35c26.726 0 37.552 14.227 37.552 27.607 0 16.09-12.178 25.066-34.168 25.066-4.229 0-7.78-.17-14.884-1.016M232.328 62.068c.509-13.21-8.455-18.63-16.068-18.63-9.978 0-15.9 7.453-16.577 18.63zm-32.645 2.88c-.336 26.93 15.732 33.703 23.85 33.703 8.29 0 12.517-2.878 21.145-12.534v4.405c-7.274 9.316-14.21 12.871-24.696 12.871-18.776 0-32.307-13.04-32.307-31.163 0-18.121 13.194-32.349 30.107-32.349 13.872 0 26.728 11.178 25.88 25.067M308.611 88.488c0 7.792 1.694 10.163 10.15 10.163v2.88h-31.968v-2.88c8.117 0 10.317-1.862 10.317-7.451V59.866c0-9.653-6.936-13.717-13.362-13.717-5.92 0-11.164 3.725-17.083 11.685v29.301c0 9.145 1.183 11.516 10.148 11.516v2.88h-31.63v-2.88c7.95 0 9.981-.678 9.981-11.516V53.431c0-7.282-1.863-8.807-9.982-8.807v-2.88l18.606-1.862h2.877v12.025c7.103-8.13 14.04-12.025 21.65-12.025 9.98 0 20.296 7.113 20.296 21.509"/>
  <path fill="#011f5b" d="M381.851 88.488c0 7.792 1.69 10.163 10.149 10.163v2.88h-31.967v-2.88c8.118 0 10.315-1.862 10.315-7.451V59.866c0-9.653-6.934-13.717-13.36-13.717-5.923 0-11.164 3.725-17.086 11.685v29.301c0 9.145 1.186 11.516 10.15 11.516v2.88h-31.631v-2.88c7.949 0 9.98-.678 9.98-11.516V53.431c0-7.282-1.86-8.807-9.98-8.807v-2.88l18.607-1.862h2.874v12.025c7.105-8.13 14.04-12.025 21.65-12.025 9.98 0 20.3 7.113 20.3 21.509M128.021 118.753c0 2.689.73 4.745 3.589 4.745 2.629 0 4.01-1.768 4.01-4.842v-5.34c0-.404-.076-.73-.115-1.039-.096-.692-.748-.96-1.65-1.055v-.5h4.529v.5c-.922.094-1.555.363-1.65 1.055-.04.31-.116.635-.116 1.038v5.418c0 4.13-2.628 5.67-5.104 5.67-4.087 0-5.354-2.078-5.354-5.553v-5.726c0-1.788.077-1.69-1.65-1.902v-.5h5.162v.5c-1.727.211-1.65.114-1.65 1.902M149.247 124.17c-2.353-2.786-4.797-5.706-7.21-8.552v6.553c0 .309.06.56.089.798.074.535.578.744 1.555.815v.386h-3.628v-.386c.71-.072 1.2-.28 1.273-.815.03-.238.09-.49.09-.798v-6.985c-.416-.532-.874-1.007-1.718-1.007v-.386h2.694c2.206 2.683 4.502 5.412 6.708 8.095h.029v-6.093c0-.311-.06-.563-.089-.8-.074-.535-.577-.741-1.554-.816v-.386h3.628v.386c-.696.075-1.2.28-1.274.815-.03.238-.09.49-.09.801v8.375M156.843 122.317c0 1.378-.059 1.304 1.274 1.467v.386h-3.983v-.386c1.333-.163 1.273-.089 1.273-1.467v-6.67c0-1.38.06-1.305-1.273-1.468v-.386h3.983v.386c-1.333.163-1.274.089-1.274 1.467M164.423 114.18c-.813 0-1.407.237-.918 1.658.578 1.75 1.438 4.3 2.207 6.553.948-2.268 1.85-4.55 2.769-6.819.37-.932-.016-1.393-1.023-1.393v-.386h3.199v.386c-.43 0-.919.149-1.229.89-1.244 3.038-2.502 6.064-3.745 9.101h-.756c-.903-2.563-1.91-5.426-2.813-7.946-.547-1.584-1.006-2.045-1.717-2.045v-.386h4.026M172.937 123.784c1.332-.163 1.274-.089 1.274-1.467v-6.67c0-1.38.058-1.305-1.274-1.468v-.386h6.618v2.389h-.384c-.148-1.099-.445-1.914-1.511-1.914h-2.013v4.239h1.243c.933 0 1.333-.369 1.362-1.29h.385v3.158h-.385c-.03-.873-.37-1.393-1.362-1.393h-1.243v3.352c0 1.258.578 1.361 1.91 1.361 2.146 0 2.044-.606 2.724-2.193h.384l-.444 2.668h-7.284M185.64 119.102h1.23c1.288 0 1.88-.978 1.88-2.655 0-1.616-.889-2.18-1.97-2.18h-1.14zm-2.71-5.309h4.31c1.494 0 2.99.787 2.99 2.52 0 1.527-.933 2.58-2.072 3.026l1.45 2.208c.741 1.082 1.57 2.12 2.088 2.432v.191h-1.524c-.875 0-1.348-1.616-3.14-4.596h-1.391v2.743c0 1.378-.06 1.304 1.272 1.467v.386h-3.982v-.386c1.332-.163 1.274-.089 1.274-1.467v-6.67c0-1.38.058-1.305-1.274-1.468M199.026 116.001c-.12-1.035-.683-1.868-1.866-1.868-.86 0-1.629.447-1.629 1.542 0 1.039 1.037 1.662 2.519 2.775 1.567 1.17 2.07 1.925 2.07 3.157 0 1.762-1.804 2.74-3.583 2.74-.946 0-1.76-.177-2.53-.471-.06-.032-.106-.092-.106-.21v-2.133h.387c.162 1.645 1.243 2.297 2.384 2.297 1.051 0 1.908-.8 1.908-1.882 0-.964-.516-1.75-2.738-3.218-.8-.535-1.791-1.113-1.791-2.729 0-1.333 1.48-2.385 3.182-2.385.637 0 1.482.074 2.073.28.09.032.104.089.104.163v1.942M205.497 122.317c0 1.378-.06 1.304 1.27 1.467v.386h-3.982v-.386c1.334-.163 1.274-.089 1.274-1.467v-6.67c0-1.38.06-1.305-1.274-1.468v-.386h3.983v.386c-1.331.163-1.271.089-1.271 1.467M214.084 122.317c0 1.378-.06 1.304 1.274 1.467v.386h-3.986v-.386c1.334-.163 1.274-.089 1.274-1.467v-8.05h-1.33c-1.29 0-1.586.816-2.075 1.794h-.371l.4-2.268h8.19l.4 2.268h-.371c-.489-.978-.786-1.793-2.074-1.793h-1.331M222.167 123.784c1.331-.163 1.274-.089 1.274-1.467v-2.283l-2.281-4.522c-.489-.964-.903-1.333-1.583-1.333v-.386h3.774v.386c-1.124 0-1.021.564-.653 1.333l1.795 3.722 2.042-3.722c.503-.904.029-1.333-.846-1.333v-.386h3.051v.386c-.414 0-.813.192-1.214.904l-2.47 4.49c-.15.298-.18.713-.18 1.085v1.659c0 1.378-.057 1.304 1.274 1.467v.386h-3.983M242.197 116.87c0-1.999-1.208-2.076-1.513-2.076-2.074 0-3.436 3.727-3.436 6.227 0 .998.174 2.803 1.594 2.803 2.188 0 3.355-3.612 3.355-6.953zm-6.714 3.748c0-2.517 2.167-6.284 5.372-6.284 2.555 0 3.108 1.73 3.108 3.458 0 2.114-1.688 6.61-5.353 6.61-2.456 0-3.127-1.98-3.127-3.784M253.616 114.969l-.46.403h-2.514c-.94 4.57-2.476 10.663-3.569 13.584h-.864l2.745-13.584h-1.822l.171-.806h1.805c1.016-4.094 4.394-4.517 5.2-4.517.44 0 1.361.077 1.65.346l-.232 1.267-.48.232c-.267-.518-.882-1.116-1.687-1.116-1.152 0-2.014.79-2.477 2.864l-.209.924h2.82M265.322 121.77c0 1.785-.078 1.69 1.648 1.903v.497h-5.161v-.497c1.727-.212 1.651-.118 1.651-1.903v-8.646c0-1.788.076-1.69-1.651-1.902v-.5h5.027c3.185 0 4.759 1.266 4.759 3.575 0 2.765-2.494 4.264-5.43 4.09v-.384c2.4.038 3.511-1.401 3.511-3.515 0-2.154-1.034-3.152-3.185-3.152h-1.169M274.24 123.784c1.335-.163 1.275-.089 1.275-1.467v-6.67c0-1.38.06-1.305-1.274-1.468v-.386h6.618v2.389h-.386c-.148-1.099-.442-1.914-1.508-1.914h-2.014v4.239h1.243c.933 0 1.334-.369 1.362-1.29h.386v3.158h-.386c-.028-.873-.37-1.393-1.362-1.393h-1.243v3.352c0 1.258.578 1.361 1.909 1.361 2.148 0 2.044-.606 2.724-2.193h.387l-.447 2.668h-7.283M293.725 124.17c-2.353-2.786-4.796-5.706-7.21-8.552v6.553c0 .309.06.56.089.798.075.535.576.744 1.553.815v.386h-3.624v-.386c.708-.072 1.196-.28 1.271-.815.03-.238.088-.49.088-.798v-6.985c-.414-.532-.87-1.007-1.716-1.007v-.386h2.693c2.208 2.683 4.503 5.412 6.707 8.095h.032v-6.093c0-.311-.06-.563-.09-.8-.072-.535-.575-.741-1.555-.816v-.386h3.627v.386c-.693.075-1.2.28-1.271.815-.03.238-.09.49-.09.801v8.375M306.99 124.17c-2.353-2.786-4.795-5.706-7.208-8.552v6.553c0 .309.06.56.087.798.075.535.578.744 1.555.815v.386h-3.626v-.386c.708-.072 1.197-.28 1.272-.815.032-.238.089-.49.089-.798v-6.985c-.414-.532-.872-1.007-1.717-1.007v-.386h2.694c2.208 2.683 4.501 5.412 6.707 8.095h.03v-6.093c0-.311-.06-.563-.087-.8-.075-.535-.578-.741-1.558-.816v-.386h3.629v.386c-.695.075-1.2.28-1.272.815-.031.238-.091.49-.091.801v8.375M316.63 116.001c-.118-1.035-.681-1.868-1.866-1.868-.857 0-1.629.447-1.629 1.542 0 1.039 1.037 1.662 2.517 2.775 1.571 1.17 2.074 1.925 2.074 3.157 0 1.762-1.805 2.74-3.582 2.74-.949 0-1.762-.177-2.534-.471-.057-.032-.103-.092-.103-.21v-2.133h.386c.163 1.645 1.242 2.297 2.383 2.297 1.05 0 1.91-.8 1.91-1.882 0-.964-.516-1.75-2.74-3.218-.8-.535-1.79-1.113-1.79-2.729 0-1.333 1.48-2.385 3.181-2.385.638 0 1.484.074 2.074.28.09.032.104.089.104.163v1.942M322.597 123.784c1.333-.163 1.273-.089 1.273-1.467v-2.283l-2.278-4.522c-.489-.964-.904-1.333-1.586-1.333v-.386h3.777v.386c-1.127 0-1.024.564-.653 1.333l1.792 3.722 2.042-3.722c.503-.904.032-1.333-.843-1.333v-.386h3.051v.386c-.417 0-.816.192-1.214.904l-2.473 4.49c-.15.298-.177.713-.177 1.085v1.659c0 1.378-.06 1.304 1.271 1.467v.386h-3.982M331.597 123.784c1.335-.163 1.276-.089 1.276-1.467v-6.67c0-1.38.06-1.305-1.276-1.468v-.386h3.986v.386c-1.334.163-1.274.089-1.274 1.467v6.908c0 1.038.577 1.141 1.894 1.141 2.148 0 2.06-.606 2.74-2.193h.37l-.445 2.668h-7.27M344.48 114.18c-.814 0-1.408.237-.919 1.658.58 1.75 1.438 4.3 2.209 6.553.944-2.268 1.851-4.55 2.767-6.819.371-.932-.013-1.393-1.023-1.393v-.386h3.2v.386c-.428 0-.92.149-1.228.89-1.246 3.038-2.502 6.064-3.749 9.101h-.753c-.902-2.563-1.912-5.426-2.814-7.946-.548-1.584-1.006-2.045-1.717-2.045v-.386h4.028M356.756 120.169l-1.572-4.82h-.028l-1.762 4.82zm-3.586.563l-.678 1.985c-.195.578.087 1.067.738 1.067v.386h-2.692v-.386c.399 0 .827-.252 1.064-.74.638-1.305 2.368-6.153 3.597-9.428h.832c1.005 2.98 2.516 7.545 3.019 8.864.326.832.563 1.304 1.2 1.304v.386h-3.451v-.386c.934 0 1.022-.489.785-1.141l-.637-1.91M371.65 124.17c-2.353-2.786-4.799-5.706-7.21-8.552v6.553c0 .309.058.56.089.798.074.535.577.744 1.554.815v.386h-3.628v-.386c.71-.072 1.199-.28 1.273-.815.03-.238.09-.49.09-.798v-6.985c-.414-.532-.875-1.007-1.717-1.007v-.386h2.694c2.205 2.683 4.502 5.412 6.707 8.095h.028v-6.093c0-.311-.057-.563-.088-.8-.074-.535-.578-.741-1.555-.816v-.386h3.629v.386c-.698.075-1.2.28-1.274.815-.03.238-.09.49-.09.801v8.375M378.651 122.317c0 1.378-.057 1.304 1.274 1.467v.386h-3.981v-.386c1.33-.163 1.274-.089 1.274-1.467v-6.67c0-1.38.057-1.305-1.274-1.468v-.386h3.981v.386c-1.331.163-1.274.089-1.274 1.467M388.424 120.169l-1.568-4.82h-.032l-1.76 4.82zm-3.582.563l-.683 1.985c-.191.578.09 1.067.743 1.067v.386h-2.697v-.386c.4 0 .828-.252 1.066-.74.637-1.305 2.371-6.153 3.598-9.428h.83c1.007 2.98 2.517 7.545 3.021 8.864.326.832.56 1.304 1.198 1.304v.386h-3.449v-.386c.932 0 1.02-.489.783-1.141l-.633-1.91"/>
  <path fill="#fff" d="M4.52 4.51h106.218v53.17c-.72 43.339-49.224 66.118-55.325 65.91-6.346-.218-51.036-22.508-50.903-66.136.002-.784.01-52.943.01-52.943"/>
  <path fill="#900" d="M4.51 36.823c.154.153.006-32.303.006-32.303h106.14v32.304"/>
  <path fill="none" stroke="#900" stroke-miterlimit="3.864" stroke-width=".479" d="M4.51 36.823c.154.153.006-32.303.006-32.303h106.14v32.304H4.51z"/>
  <path fill="#011f5b" d="M10.457 84.115c4.083 8.592 9.13 15.511 16.216 21.397L57.58 74.224l29.75 30.553c6.133-5.614 12.106-12.413 16.386-20.468L57.544 39.833 10.669 84.206"/>
  <path fill="none" stroke="#011f5b" stroke-miterlimit="3.864" stroke-width=".479" d="M10.457 84.115c4.083 8.592 9.13 15.511 16.216 21.397L57.58 74.224l29.75 30.553c6.133-5.614 12.106-12.413 16.386-20.468L57.544 39.833 10.669 84.206zM4.51 37.043l106.14-.014"/>
  <path fill="#fff" d="M84.062 12.547h2.889c2.117-.484 2.89-1.713 5.06-1.713 1.563 0 2.298 1.039 3.446 1.039.97 0 2.459-1.108 4.091-1.108 1.67 0 2.495 1.004 3.59 1.47.97.416 2.243.394 3.589.394-.036.97 0 1.546 0 2.359 0 .83 1.113.502 1.113 1.852 0 1.42-1.437 1.142-1.437 1.714l-.053 5.278c.072.658 1.4.745 1.4 1.748 0 1.489-1.479.973-1.382 2.147.071.865 0 2.7 0 2.7-2.853 0-21.204.168-22.102.133.054-1.955.357-1.839.425-2.781.054-.762-1.65-1.23-1.65-2.51 0-.883 1.021-.83 1.11-1.662v-5.261c-.053-.693-1.596-1.039-1.543-2.025.064-1.18 1.436-1.03 1.436-1.818 0-.346.036-1.627.018-1.956"/>
  <path fill="none" stroke="#011f5b" stroke-miterlimit="3.864" stroke-width=".479" d="M84.062 12.547h2.889c2.117-.484 2.89-1.713 5.06-1.713 1.563 0 2.298 1.039 3.446 1.039.97 0 2.459-1.108 4.091-1.108 1.67 0 2.495 1.004 3.59 1.47.97.416 2.243.394 3.589.394-.036.97 0 1.546 0 2.359 0 .83 1.113.502 1.113 1.852 0 1.42-1.437 1.142-1.437 1.714l-.053 5.278c.072.658 1.4.745 1.4 1.748 0 1.489-1.479.973-1.382 2.147.071.865 0 2.7 0 2.7-2.853 0-21.204.168-22.102.133.054-1.955.357-1.839.425-2.781.054-.762-1.65-1.23-1.65-2.51 0-.883 1.021-.83 1.11-1.662v-5.261c-.053-.693-1.596-1.039-1.543-2.025.064-1.18 1.436-1.03 1.436-1.818 0-.346.036-1.627.018-1.956z"/>
  <path fill="none" stroke="#011f5b" stroke-miterlimit="3.864" stroke-width=".479" d="M86.413 12.634s.037 11.77 0 14.54c0 0 17.12.033 17.873-.036 0-3.133-.017-14.591-.017-14.591M95.368 11.907v15.3"/>
  <path fill="#011f5b" d="M95.638 25.321c.753.034 2.136.544 3.481.952 1.74.528 3.586.158 4.952.432.43.087-8.433.156-8.433.156.035-1.714 0-1.54 0-1.54"/>
  <path fill="none" stroke="#011f5b" stroke-miterlimit="3.864" stroke-width=".479" d="M95.638 25.321c.753.034 2.136.544 3.481.952 1.74.528 3.586.158 4.952.432.43.087-8.433.156-8.433.156.035-1.714 0-1.54 0-1.54z"/>
  <path fill="#011f5b" d="M94.362 27.589c0-.383.447-.693.996-.693.552 0 .997.31.997.693 0 .382-.445.691-.997.691-.55 0-.996-.31-.996-.691"/>
  <path fill="none" stroke="#011f5b" stroke-miterlimit="3.864" stroke-width=".479" d="M94.362 27.589c0-.383.447-.693.996-.693.552 0 .997.31.997.693 0 .382-.445.691-.997.691-.55 0-.996-.31-.996-.691z"/>
  <path fill="#011f5b" d="M94.87 25.321c-.754.034-2.137.544-3.481.952-1.74.528-3.587.158-4.952.432-.431.087 8.433.156 8.433.156-.036-1.714 0-1.54 0-1.54"/>
  <path fill="none" stroke="#011f5b" stroke-miterlimit="3.864" stroke-width=".479" d="M94.87 25.321c-.754.034-2.137.544-3.481.952-1.74.528-3.587.158-4.952.432-.431.087 8.433.156 8.433.156-.036-1.714 0-1.54 0-1.54z"/>
  <path fill="#fff" d="M36.052 31.966c.287 1.125 1.13 1.87 2.513 1.87 2.565 0 5.042-1.905 6.531-2.977 1.167-.831 2.369-1.714 2.369-3.531l-.215.692s2.01-2.007 6.962-.416c1.376.443 7.269 3.756 8.543 4.293 1.095.468 4.932 3.223 10.928 2.16 0 0 9.156-1.26 7.11-10.701-1.461-6.747-1.008-7.226-.452-9.39-.215-.104-5.599-1.315-5.455 6.162-2.334.242-5.313 2.007-3.374 6.646.79-1.178 1.848-2.423 3.302-2.423.915 0 1.879 1.316 1.938 2.284.144 2.354-2.225 3.393-5.168 2.908-1.492-.245-2.866-1.9-4.923-3.391.36-.173.687-1.386.687-1.87 0-1.195-1.023-1.748-1.722-2.147.144-.415.43-.97.43-1.385 0-.951-1.346-.882-1.865-1.245.214-.295.214-.121.214-.555 0-1.385.216-2.146-2.584-2.076.234-1.368-.054-2.25-1.005-2.632l-2.081-.276c-1.292-.242-.003-.673-1.196-1.824-1.064-1.027-2.815 0-2.815 0 0-.952-.655-1.707-1.804-1.707-.61 0-1.363.052-1.794.277l-.86.692c-1.078 0-1.347-.97-2.585-.97s-1.74.97-2.226 1.593c-.843-.398-.951-1.107-2.081-1.107-.664 0-.861.709-1.149 1.038-.735.814-.683 1.657-1.832 2.072l-.427-.752a2.858 2.858 0 0 1-.038-.143c-1.687.814-5.493 9.502-5.493 11.284 0 1.697 1.474.953 1.474 2.77 0 1.073-1.58 1.853-1.58 2.77 0 1.16 1.346 1.73 2.512 1.73"/>
  <path fill="none" stroke="#011f5b" stroke-miterlimit="3.864" stroke-width=".479" d="M36.052 31.966c.287 1.125 1.13 1.87 2.513 1.87 2.565 0 5.042-1.905 6.531-2.977 1.167-.831 2.369-1.714 2.369-3.531l-.215.692s2.01-2.007 6.962-.416c1.376.443 7.269 3.756 8.543 4.293 1.095.468 4.932 3.223 10.928 2.16 0 0 9.156-1.26 7.11-10.701-1.461-6.747-1.008-7.226-.452-9.39-.215-.104-5.599-1.315-5.455 6.162-2.334.242-5.313 2.007-3.374 6.646.79-1.178 1.848-2.423 3.302-2.423.915 0 1.879 1.316 1.938 2.284.144 2.354-2.225 3.393-5.168 2.908-1.492-.245-2.866-1.9-4.923-3.391.36-.173.687-1.386.687-1.87 0-1.195-1.023-1.748-1.722-2.147.144-.415.43-.97.43-1.385 0-.951-1.346-.882-1.865-1.245.214-.295.214-.121.214-.555 0-1.385.216-2.146-2.584-2.076.234-1.368-.054-2.25-1.005-2.632l-2.081-.276c-1.292-.242-.003-.673-1.196-1.824-1.064-1.027-2.815 0-2.815 0 0-.952-.655-1.707-1.804-1.707-.61 0-1.363.052-1.794.277l-.86.692c-1.078 0-1.347-.97-2.585-.97s-1.74.97-2.226 1.593c-.843-.398-.951-1.107-2.081-1.107-.664 0-.861.709-1.149 1.038-.735.814-.683 1.657-1.832 2.072l-.427-.752a2.858 2.858 0 0 1-.038-.143c-1.687.814-5.493 9.502-5.493 11.284 0 1.697 1.474.953 1.474 2.77 0 1.073-1.58 1.853-1.58 2.77 0 1.16 1.346 1.73 2.512 1.73z"/>
  <path fill="#011f5b" d="M40.018 24.667s1.867.72 1.867 1.107c0 .527-1.207 1.107-2.01 1.8h-1.006c.36-1.177 0-.748 0-1.8 0-.789.833-1.107 1.149-1.107"/>
  <path fill="none" stroke="#011f5b" stroke-miterlimit="3.864" stroke-width=".479" d="M40.018 24.667s1.867.72 1.867 1.107c0 .527-1.207 1.107-2.01 1.8h-1.006c.36-1.177 0-.748 0-1.8 0-.789.833-1.107 1.149-1.107zM46.837 21.48c.97-.466.52-1.66 2.081-1.66 1.382 0 1.903.968 3.159.968.843 0 1.435-.83 2.584-.83 1.022 0 2.368 1.384 2.154 3.046 0 0 3.588-1.177 3.445 2.7 2.87-.97 2.584 1.402 2.87 2.561.288 1.108 2.155.208 1.867 2.561"/>
  <path fill="#fff" d="M8.527 12.64h2.89c2.117-.484 2.888-1.713 5.06-1.713 1.561 0 2.297 1.039 3.445 1.039.969 0 2.46-1.108 4.092-1.108 1.669 0 2.494 1.004 3.589 1.47.97.416 2.243.395 3.59.395-.037.969 0 1.545 0 2.358 0 .831 1.111.502 1.111 1.852 0 1.419-1.435 1.142-1.435 1.713l-.054 5.28c.072.657 1.4.744 1.4 1.748 0 1.488-1.48.973-1.382 2.146.071.866 0 2.7 0 2.7-2.854 0-20.817.018-21.714-.017.055-1.956-.03-1.689.036-2.631.054-.762-1.65-1.229-1.65-2.51 0-.883 1.022-.831 1.112-1.661v-5.263c-.054-.691-1.597-1.038-1.544-2.025.065-1.179 1.437-1.028 1.437-1.817 0-.346.035-1.627.017-1.955"/>
  <path fill="none" stroke="#011f5b" stroke-miterlimit="3.864" stroke-width=".479" d="M8.527 12.64h2.89c2.117-.484 2.888-1.713 5.06-1.713 1.561 0 2.297 1.039 3.445 1.039.969 0 2.46-1.108 4.092-1.108 1.669 0 2.494 1.004 3.589 1.47.97.416 2.243.395 3.59.395-.037.969 0 1.545 0 2.358 0 .831 1.111.502 1.111 1.852 0 1.419-1.435 1.142-1.435 1.713l-.054 5.28c.072.657 1.4.744 1.4 1.748 0 1.488-1.48.973-1.382 2.146.071.866 0 2.7 0 2.7-2.854 0-20.817.018-21.714-.017.055-1.956-.03-1.689.036-2.631.054-.762-1.65-1.229-1.65-2.51 0-.883 1.022-.831 1.112-1.661v-5.263c-.054-.691-1.597-1.038-1.544-2.025.065-1.179 1.437-1.028 1.437-1.817 0-.346.035-1.627.017-1.955z"/>
  <path fill="none" stroke="#011f5b" stroke-miterlimit="3.864" stroke-width=".479" d="M10.878 12.727s.035 11.77 0 14.54c0 0 17.12.033 17.873-.036 0-3.133-.018-14.59-.018-14.59M19.832 12v15.3"/>
  <path fill="#011f5b" d="M20.102 25.414c.754.035 2.138.544 3.482.952 1.74.528 3.586.158 4.952.432.431.087-8.434.156-8.434.156.035-1.713 0-1.54 0-1.54"/>
  <path fill="none" stroke="#011f5b" stroke-miterlimit="3.864" stroke-width=".479" d="M20.102 25.414c.754.035 2.138.544 3.482.952 1.74.528 3.586.158 4.952.432.431.087-8.434.156-8.434.156.035-1.713 0-1.54 0-1.54z"/>
  <path fill="#011f5b" d="M18.827 27.681c0-.382.446-.692.997-.692.55 0 .995.31.995.692 0 .382-.445.693-.995.693s-.997-.31-.997-.692"/>
  <path fill="none" stroke="#011f5b" stroke-miterlimit="3.864" stroke-width=".479" d="M18.827 27.681c0-.382.446-.692.997-.692.55 0 .995.31.995.692 0 .382-.445.693-.995.693s-.997-.31-.997-.692z"/>
  <path fill="#011f5b" d="M19.335 25.414c-.753.035-2.137.544-3.48.952-1.741.528-3.587.158-4.954.432-.43.087 8.434.156 8.434.156-.035-1.713 0-1.54 0-1.54"/>
  <path fill="none" stroke="#011f5b" stroke-miterlimit="3.864" stroke-width=".479" d="M19.335 25.414c-.753.035-2.137.544-3.48.952-1.741.528-3.587.158-4.954.432-.43.087 8.434.156 8.434.156-.035-1.713 0-1.54 0-1.54z"/>
  <path fill="#fff" d="M22.759 80.574c0-4.937 4.148-8.942 9.267-8.942 5.118 0 9.267 4.005 9.267 8.942 0 4.936-4.149 8.935-9.267 8.935-5.119 0-9.267-3.999-9.267-8.935"/>
  <path fill="none" stroke="#011f5b" stroke-miterlimit="3.864" stroke-width=".479" d="M22.759 80.574c0-4.937 4.148-8.942 9.267-8.942 5.118 0 9.267 4.005 9.267 8.942 0 4.936-4.149 8.935-9.267 8.935-5.119 0-9.267-3.999-9.267-8.935z"/>
  <path fill="#fff" d="M48.237 59.103c0-4.936 4.15-8.938 9.267-8.938 5.118 0 9.266 4.002 9.266 8.938 0 4.938-4.148 8.937-9.266 8.937s-9.267-3.999-9.267-8.937"/>
  <path fill="none" stroke="#011f5b" stroke-miterlimit="3.864" stroke-width=".479" d="M48.237 59.103c0-4.936 4.15-8.938 9.267-8.938 5.118 0 9.266 4.002 9.266 8.938 0 4.938-4.148 8.937-9.266 8.937s-9.267-3.999-9.267-8.937z"/>
  <path fill="#fff" d="M72.274 80.574c0-4.937 4.15-8.942 9.269-8.942 5.117 0 9.266 4.005 9.266 8.942 0 4.936-4.149 8.935-9.266 8.935-5.12 0-9.269-3.999-9.269-8.935"/>
  <path fill="none" stroke="#011f5b" stroke-miterlimit="3.864" stroke-width=".479" d="M72.274 80.574c0-4.937 4.15-8.942 9.269-8.942 5.117 0 9.266 4.005 9.266 8.942 0 4.936-4.149 8.935-9.266 8.935-5.12 0-9.269-3.999-9.269-8.935zM66.799 25.784c-2.368-2.61-4.457-5.674-4.817-5.827-1.166-.485-3.947-6.023-11.413-6.438-1.895-.106-9.035.588-9.28 2.417"/>
  <path fill="none" stroke="#011f5b" stroke-miterlimit="3.864" stroke-width=".479" d="M47.512 27.797c.028-.178.043-.37.043-.57 0-.297-1.75-.129-2.165-.253-.287-.086.769-.509.585-.509 1.077-.415 3.836-1.63 2.872-2.561-.934-.9-1.49-1.852-2.01-2.424-.7-.761-1.526-1.177-2.8-1.177-1.095 0-2.869 1.902-3.604 2.422.538-.52 2.096-1.868 2.096-2.976 0-2.492-1.99-4.656-2.511-6.715M36.78 31.588c1.974 0 3.086-.138 4.02-.623 1.022-.536 2.871-1.696 3.302-2.7"/>
  <path fill="none" stroke="#011f5b" stroke-miterlimit="3.864" stroke-width=".95" d="M4.486 4.52h106.217v53.169c-.719 43.338-49.223 66.118-55.325 65.91-6.345-.218-51.036-22.508-50.903-66.135.002-.785.011-52.944.011-52.944z"/>
</svg>
